<svg width="30" height="30" fill="none" stroke="#f6f6f6" stroke-linecap="round" stroke-linejoin="round" stroke-width="1.5" viewBox="0 0 24 24" xmlns="http://www.w3.org/2000/svg">
  <path d="M6.75 19.686A8.464 8.464 0 0 0 12 21.5a8.464 8.464 0 0 0 5.25-1.814"></path>
  <path d="M9.5 4.874A8.504 8.504 0 0 0 3.955 15.75"></path>
  <path d="M14.5 4.874a8.504 8.504 0 0 1 5.545 10.876"></path>
  <path d="M21.5 18c0 .67-.264 1.28-.694 1.729A2.5 2.5 0 1 1 21.5 18Z"></path>
  <path d="M7.5 18c0 .67-.264 1.28-.694 1.729A2.5 2.5 0 1 1 7.5 18Z"></path>
  <path d="M14.5 4.5c0 .67-.264 1.28-.694 1.729A2.5 2.5 0 1 1 14.5 4.5Z"></path>
</svg>